<svg width="24" height="24" viewBox="0 0 24 24" fill="none" xmlns="http://www.w3.org/2000/svg">
<mask id="mask0_150_249" style="mask-type:alpha" maskUnits="userSpaceOnUse" x="0" y="0" width="24" height="24">
<rect width="24" height="24" fill="#D9D9D9"/>
</mask>
<g mask="url(#mask0_150_249)">
<path d="M6.49925 20.9375C5.54975 20.9375 4.73958 20.6018 4.06875 19.9305C3.39792 19.2593 3.0625 18.4489 3.0625 17.4992C3.0625 16.5497 3.39808 15.7396 4.06925 15.0688C4.74042 14.3979 5.55067 14.0625 6.5 14.0625H8.0625V9.9375H6.5C5.55067 9.9375 4.74042 9.60183 4.06925 8.9305C3.39808 8.25933 3.0625 7.44892 3.0625 6.49925C3.0625 5.54975 3.39817 4.73958 4.0695 4.06875C4.74067 3.39792 5.55108 3.0625 6.50075 3.0625C7.45025 3.0625 8.26042 3.39808 8.93125 4.06925C9.60208 4.74042 9.9375 5.55067 9.9375 6.5V8.0625H14.0625V6.5C14.0625 5.55067 14.3982 4.74042 15.0695 4.06925C15.7407 3.39808 16.5511 3.0625 17.5008 3.0625C18.4503 3.0625 19.2604 3.39817 19.9312 4.0695C20.6021 4.74067 20.9375 5.55108 20.9375 6.50075C20.9375 7.45025 20.6019 8.26042 19.9307 8.93125C19.2596 9.60208 18.4493 9.9375 17.5 9.9375H15.9375V14.0625H17.5C18.4493 14.0625 19.2596 14.3982 19.9307 15.0695C20.6019 15.7407 20.9375 16.5511 20.9375 17.5008C20.9375 18.4503 20.6018 19.2604 19.9305 19.9312C19.2593 20.6021 18.4489 20.9375 17.4992 20.9375C16.5497 20.9375 15.7396 20.6019 15.0688 19.9307C14.3979 19.2596 14.0625 18.4493 14.0625 17.5V15.9375H9.9375V17.5C9.9375 18.4493 9.60183 19.2596 8.9305 19.9307C8.25933 20.6019 7.44892 20.9375 6.49925 20.9375ZM6.49925 19.0625C6.93308 19.0625 7.30208 18.9106 7.60625 18.6068C7.91042 18.3029 8.0625 17.934 8.0625 17.5V15.9375H6.5C6.066 15.9375 5.69708 16.0893 5.39325 16.393C5.08942 16.6967 4.9375 17.0654 4.9375 17.4992C4.9375 17.9331 5.08933 18.3021 5.393 18.6062C5.69667 18.9104 6.06542 19.0625 6.49925 19.0625ZM17.4992 19.0625C17.9331 19.0625 18.3021 18.9107 18.6062 18.607C18.9104 18.3033 19.0625 17.9346 19.0625 17.5008C19.0625 17.0669 18.9106 16.6979 18.6068 16.3938C18.3029 16.0896 17.934 15.9375 17.5 15.9375H15.9375V17.5C15.9375 17.934 16.0893 18.3029 16.393 18.6068C16.6967 18.9106 17.0654 19.0625 17.4992 19.0625ZM9.9375 14.0625H14.0625V9.9375H9.9375V14.0625ZM6.5 8.0625H8.0625V6.5C8.0625 6.066 7.91067 5.69708 7.607 5.39325C7.30333 5.08942 6.93458 4.9375 6.50075 4.9375C6.06692 4.9375 5.69792 5.08933 5.39375 5.393C5.08958 5.69667 4.9375 6.06542 4.9375 6.49925C4.9375 6.93308 5.08942 7.30208 5.39325 7.60625C5.69708 7.91042 6.066 8.0625 6.5 8.0625ZM15.9375 8.0625H17.5C17.934 8.0625 18.3029 7.91067 18.6068 7.607C18.9106 7.30333 19.0625 6.93458 19.0625 6.50075C19.0625 6.06692 18.9107 5.69792 18.607 5.39375C18.3033 5.08958 17.9346 4.9375 17.5008 4.9375C17.0669 4.9375 16.6979 5.08942 16.3938 5.39325C16.0896 5.69708 15.9375 6.066 15.9375 6.5V8.0625Z" fill="#F3F4F5"/>
</g>
</svg>
