<svg width="24" height="24" viewBox="0 0 24 24" fill="none" xmlns="http://www.w3.org/2000/svg">
<mask id="mask0_64_70" style="mask-type:alpha" maskUnits="userSpaceOnUse" x="0" y="0" width="24" height="24">
<rect width="24" height="24" fill="#D9D9D9"/>
</mask>
<g mask="url(#mask0_64_70)">
<path d="M12 18.8C10.1166 18.8 8.51245 18.1375 7.18745 16.8125C5.86245 15.4875 5.19995 13.8833 5.19995 12C5.19995 10.1167 5.86245 8.5125 7.18745 7.1875C8.51245 5.8625 10.1166 5.2 12 5.2C13.8833 5.2 15.4875 5.8625 16.8125 7.1875C18.1375 8.5125 18.8 10.1167 18.8 12C18.8 13.8833 18.1375 15.4875 16.8125 16.8125C15.4875 18.1375 13.8833 18.8 12 18.8ZM12 16.925C13.3583 16.925 14.5187 16.4438 15.4812 15.4813C16.4437 14.5188 16.925 13.3583 16.925 12C16.925 10.6417 16.4437 9.48125 15.4812 8.51875C14.5187 7.55625 13.3583 7.075 12 7.075C10.6416 7.075 9.4812 7.55625 8.5187 8.51875C7.5562 9.48125 7.07495 10.6417 7.07495 12C7.07495 13.3583 7.5562 14.5188 8.5187 15.4813C9.4812 16.4438 10.6416 16.925 12 16.925Z" fill="#F3F4F5"/>
</g>
</svg>
